<svg width="1024" height="1024" viewBox="0 0 1024 1024" fill="none" xmlns="http://www.w3.org/2000/svg">
<rect width="1024" height="1024" rx="10" fill="white"/>
<path fill-rule="evenodd" clip-rule="evenodd" d="M640.919 223.519C609.59 201.016 567.106 189.438 511.999 189.438C454.843 189.438 411.685 201.894 380.547 226.075L279.029 125.725C277.134 123.852 273.92 125.194 273.92 127.859V481.388C203.132 545.994 158.719 639.01 158.719 742.399C158.719 879.571 236.898 865.623 351.128 845.243C399.378 836.635 454.06 826.879 511.999 826.879C569.939 826.879 624.621 836.635 672.87 845.243C787.101 865.623 865.279 879.571 865.279 742.399C865.279 636.54 818.719 541.556 744.96 476.807V127.859C744.96 125.194 741.746 123.852 739.851 125.725L640.919 223.519ZM509.657 389.127L509.44 388.912L509.22 389.13C509.366 389.129 509.512 389.128 509.657 389.127Z" fill="url(#paint0_linear_14872_42)"/>
<defs>
<linearGradient id="paint0_linear_14872_42" x1="335.359" y1="-15.3858" x2="520.433" y2="1325.68" gradientUnits="userSpaceOnUse">
<stop offset="0.352785" stop-color="#090000"/>
<stop offset="0.576145" stop-color="#060000" stop-opacity="0.759852"/>
<stop offset="0.933908" stop-opacity="0.260172"/>
<stop offset="1" stop-color="#796767" stop-opacity="0"/>
</linearGradient>
</defs>
</svg>
